<svg width="30" height="30" viewBox="0 0 30 30" fill="none" xmlns="http://www.w3.org/2000/svg">
<rect opacity="0.01" width="30" height="30" fill="#3C4D53"/>
<mask id="mask0_0_111" style="mask-type:luminance" maskUnits="userSpaceOnUse" x="0" y="0" width="30" height="30">
<rect width="30" height="30" fill="white"/>
</mask>
<g mask="url(#mask0_0_111)">
<path fill-rule="evenodd" clip-rule="evenodd" d="M5.40572 11.5C5.40572 11.9069 5.73561 12.2368 6.14256 12.2368L22.0785 12.2368L20.7313 13.5841C20.4435 13.8718 20.4435 14.3384 20.7313 14.6261C21.019 14.9139 21.4856 14.9139 21.7733 14.6261L24.3785 12.021C24.4491 11.9504 24.5024 11.8689 24.5384 11.782C24.5741 11.6958 24.594 11.6013 24.5943 11.5022C24.5943 11.5015 24.5943 11.5007 24.5943 11.5C24.5943 11.4993 24.5943 11.4985 24.5943 11.4978C24.5937 11.3099 24.5218 11.1223 24.3785 10.979C24.3784 10.9789 24.3784 10.9789 24.3784 10.9789L21.7733 8.37383C21.4856 8.08608 21.019 8.08608 20.7313 8.37383C20.4435 8.66159 20.4435 9.12813 20.7313 9.41588L22.0785 10.7631L6.14256 10.7631C5.73561 10.7631 5.40572 11.093 5.40572 11.5Z" fill="white"/>
<path fill-rule="evenodd" clip-rule="evenodd" d="M24.5943 18.5C24.5943 18.9069 24.2644 19.2368 23.8574 19.2368L7.92145 19.2368L9.26871 20.5841C9.55647 20.8718 9.55647 21.3384 9.26871 21.6261C8.98096 21.9139 8.51442 21.9139 8.22666 21.6261L5.62153 19.021C5.55089 18.9504 5.49758 18.8689 5.46163 18.782C5.42587 18.6958 5.40601 18.6013 5.40572 18.5022C5.40572 18.5015 5.40572 18.5007 5.40572 18.5C5.40572 18.4993 5.40572 18.4985 5.40572 18.4978C5.40628 18.3099 5.47822 18.1223 5.62153 17.979C5.62156 17.9789 5.62158 17.9789 5.62161 17.9789L8.22666 15.3738C8.51442 15.0861 8.98096 15.0861 9.26871 15.3738C9.55647 15.6616 9.55647 16.1281 9.26871 16.4159L7.92145 17.7631L23.8574 17.7631C24.2644 17.7631 24.5943 18.093 24.5943 18.5Z" fill="white"/>
</g>
</svg>
