<svg width="30" height="30" viewBox="0 0 30 30" fill="none" xmlns="http://www.w3.org/2000/svg">
    <rect opacity="0.01" width="30" height="30" fill="#3C4D53" />
    <mask id="mask0_0_120" style="mask-type:luminance" maskUnits="userSpaceOnUse" x="0" y="0"
        width="30" height="30">
        <rect width="30" height="30" fill="white" />
    </mask>
    <g mask="url(#mask0_0_120)">
        <path fill-rule="evenodd" clip-rule="evenodd"
            d="M21.6694 15.7537C22.5213 14.9021 23 13.7468 23 12.5421C23 11.3375 22.5213 10.1823 21.6694 9.33063C20.8177 8.47866 19.6625 8 18.4579 8C17.2532 8 16.0979 8.4787 15.2462 9.33074L14.9998 9.57716L14.7533 9.33063C12.9796 7.55696 10.1039 7.55696 8.33025 9.33063C6.55658 11.1043 6.55658 13.98 8.33025 15.7537L14.5058 21.9292C14.7787 22.2021 15.221 22.2021 15.4938 21.9292L21.6694 15.7537ZM20.6815 14.7656L19.9409 15.5062L14.9998 20.4473L9.31822 14.7657C8.09018 13.5377 8.09018 11.5466 9.31822 10.3186C10.5462 9.09055 12.5373 9.09055 13.7653 10.3186L14.5058 11.0591C14.7787 11.3319 15.221 11.3319 15.4938 11.0591L16.2343 10.3186C16.824 9.7286 17.6238 9.39719 18.4579 9.39719C19.2919 9.39719 20.0917 9.7286 20.6815 10.3187C21.2714 10.9083 21.6028 11.7081 21.6028 12.5421C21.6028 13.3762 21.2714 14.176 20.6815 14.7656Z"
            fill="white" />
    </g>
</svg>